<svg 
 xmlns="http://www.w3.org/2000/svg"
 xmlns:xlink="http://www.w3.org/1999/xlink"
 width="1.199cm" height="1.411cm">
<path fill-rule="evenodd"  fill="rgb(255, 255, 255)"
 d="M33.239,0.898 C33.334,0.972 33.241,1.250 33.023,1.519 C32.996,1.556 32.966,1.591 32.938,1.624 C32.886,1.679 32.958,2.448 33.001,3.355 C33.054,4.489 33.014,5.919 32.744,7.570 C32.720,7.728 32.693,7.882 32.667,8.031 C32.644,8.150 32.627,8.259 32.602,8.377 C32.494,8.934 32.376,9.427 32.266,9.841 C32.051,10.643 31.577,11.973 31.229,12.814 C30.203,15.281 28.635,17.977 26.256,20.772 C25.663,21.469 25.365,22.718 25.527,23.613 C26.076,26.660 26.468,33.303 20.537,36.818 C19.745,37.288 19.165,36.842 19.180,35.933 C19.239,31.927 17.752,21.976 1.433,22.277 C0.508,22.293 -0.049,21.627 0.312,20.790 C1.457,18.134 4.632,13.018 12.047,13.266 C12.969,13.297 14.054,12.749 14.544,11.979 C15.827,9.960 18.616,6.217 23.024,3.544 C25.745,1.846 28.244,1.126 29.803,0.820 C30.710,0.644 31.483,0.561 31.515,0.514 C31.533,0.487 31.553,0.459 31.574,0.431 C31.788,0.162 32.040,0.001 32.138,0.072 L32.208,0.124 C32.247,0.152 32.519,0.100 32.813,0.009 C33.108,-0.083 33.296,0.060 33.234,0.328 C33.174,0.595 33.149,0.831 33.181,0.855 C33.213,0.879 33.239,0.898 33.239,0.898 ZM23.567,11.431 C22.189,10.654 20.489,10.939 19.484,12.030 C19.343,12.184 19.216,12.351 19.106,12.539 C18.211,14.048 18.761,15.993 20.336,16.884 C21.710,17.663 23.410,17.376 24.418,16.284 C24.555,16.132 24.686,15.964 24.797,15.776 C25.692,14.265 25.138,12.318 23.567,11.431 ZM7.695,25.333 C8.475,24.846 8.957,25.263 8.605,26.103 C7.809,28.005 6.116,31.195 3.189,32.923 C2.397,33.390 1.877,32.918 2.228,32.078 C2.987,30.259 4.628,27.251 7.695,25.333 ZM11.126,27.964 C11.919,27.498 12.405,27.909 12.083,28.761 C11.111,31.335 8.707,36.427 4.238,38.850 C3.430,39.287 2.908,38.819 3.224,37.967 C4.141,35.506 6.433,30.733 11.126,27.964 ZM14.571,30.624 C15.351,30.137 15.832,30.554 15.481,31.394 C14.685,33.297 12.991,36.488 10.064,38.218 C9.272,38.686 8.753,38.214 9.104,37.372 C9.862,35.554 11.502,32.544 14.571,30.624 Z"/>
</svg>